<?xml version="1.0" encoding="UTF-8" standalone="no"?>
<!-- Created with Inkscape (http://www.inkscape.org/) -->

<svg
   xmlns:dc="http://purl.org/dc/elements/1.1/"
   xmlns:cc="http://creativecommons.org/ns#"
   xmlns:rdf="http://www.w3.org/1999/02/22-rdf-syntax-ns#"
   xmlns:svg="http://www.w3.org/2000/svg"
   xmlns="http://www.w3.org/2000/svg"
   xmlns:sodipodi="http://sodipodi.sourceforge.net/DTD/sodipodi-0.dtd"
   xmlns:inkscape="http://www.inkscape.org/namespaces/inkscape"
   width="744.09448819"
   height="1052.3622047"
   id="svg3708"
   version="1.1"
   inkscape:version="0.48.4 r9939"
   sodipodi:docname="images.svg">
  <defs
     id="defs3710" />
  <sodipodi:namedview
     id="base"
     pagecolor="#ffffff"
     bordercolor="#666666"
     borderopacity="1.0"
     inkscape:pageopacity="0.0"
     inkscape:pageshadow="2"
     inkscape:zoom="2.8"
     inkscape:cx="418.54351"
     inkscape:cy="680.92045"
     inkscape:document-units="px"
     inkscape:current-layer="layer1"
     showgrid="false"
     inkscape:window-width="1855"
     inkscape:window-height="1176"
     inkscape:window-x="65"
     inkscape:window-y="24"
     inkscape:window-maximized="1"
     showguides="true"
     inkscape:guide-bbox="true" />
  <metadata
     id="metadata3713">
    <rdf:RDF>
      <cc:Work
         rdf:about="">
        <dc:format>image/svg+xml</dc:format>
        <dc:type
           rdf:resource="http://purl.org/dc/dcmitype/StillImage" />
        <dc:title></dc:title>
      </cc:Work>
    </rdf:RDF>
  </metadata>
  <g
     inkscape:label="Layer 1"
     inkscape:groupmode="layer"
     id="layer1">
    <rect
       style="color:#000000;fill:#999999;fill-opacity:1;fill-rule:nonzero;stroke:#666666;stroke-width:1.27842093;stroke-linecap:butt;stroke-linejoin:miter;stroke-miterlimit:4;stroke-opacity:1;stroke-dasharray:none;stroke-dashoffset:0;marker:none;visibility:visible;display:inline;overflow:visible;enable-background:accumulate"
       id="rect4698-1-3-8-2"
       width="42.059906"
       height="20.507193"
       x="389.09973"
       y="352.12952"
       ry="4.2144642"
       transform="matrix(1,0,-0.0942365,0.99554984,0,0)"
       inkscape:export-filename="./gateway.png"
       inkscape:export-xdpi="146.28999"
       inkscape:export-ydpi="146.28999" />
    <rect
       style="color:#000000;fill:#999999;fill-opacity:1;fill-rule:nonzero;stroke:#666666;stroke-width:1.27842093;stroke-linecap:butt;stroke-linejoin:miter;stroke-miterlimit:4;stroke-opacity:1;stroke-dasharray:none;stroke-dashoffset:0;marker:none;visibility:visible;display:inline;overflow:visible;enable-background:accumulate"
       id="rect4698-1-3-8"
       width="42.042831"
       height="6.4551826"
       x="389.07184"
       y="367.13367"
       ry="0"
       transform="matrix(1,0,-0.0942365,0.99554984,0,0)"
       inkscape:export-filename="./gateway.png"
       inkscape:export-xdpi="146.28999"
       inkscape:export-ydpi="146.28999" />
    <g
       id="g5950-1-4-7-3"
       transform="matrix(0.9328474,0,0,0.98728677,-1764.3398,-488.33755)"
       inkscape:export-filename="./gateway.png"
       inkscape:export-xdpi="146.28999"
       inkscape:export-ydpi="146.28999">
      <path
         id="path3035-4-1-7-5-8-4"
         d="m 2280.4817,861.9228 c -0.3079,0 -0.5578,-0.25978 -0.5578,-0.58034 v -4.06368 c 0,-0.32058 0.2499,-0.58049 0.5578,-0.58049 0.308,0 0.5577,0.25991 0.5577,0.58049 v 4.06368 c 0,0.32056 -0.2497,0.58034 -0.5577,0.58034 z"
         inkscape:connector-curvature="0"
         style="fill:#000000" />
      <g
         transform="matrix(0.31411962,0,0,0.37008543,1546.2164,517.87572)"
         id="g5916-4-8-1-0">
        <path
           style="fill:#000000"
           inkscape:connector-curvature="0"
           d="m 2329.5824,913.22865 c -0.435,0 -0.872,-0.136 -1.246,-0.417 -0.921,-0.689 -1.108,-1.995 -0.417,-2.913 2.38,-3.176 6.023,-4.997 9.992,-4.997 3.962,0 7.601,1.816 9.985,4.984 0.691,0.918 0.508,2.224 -0.411,2.915 -0.92,0.695 -2.224,0.508 -2.915,-0.41 -1.592,-2.115 -4.019,-3.326 -6.66,-3.326 -2.647,0 -5.074,1.213 -6.662,3.33 -0.407,0.547 -1.031,0.834 -1.666,0.834 z"
           id="path3029-8-6-4-2-9" />
        <path
           style="fill:#000000"
           inkscape:connector-curvature="0"
           d="m 2354.5664,906.98265 c -0.632,0 -1.258,-0.287 -1.667,-0.832 -3.578,-4.763 -9.042,-7.495 -14.992,-7.495 -5.948,0 -11.41,2.732 -14.988,7.495 -0.689,0.921 -1.998,1.102 -2.915,0.415 -0.918,-0.691 -1.104,-1.997 -0.415,-2.916 4.373,-5.82 11.051,-9.158 18.322,-9.158 7.269,0 13.945,3.338 18.318,9.158 0.689,0.919 0.504,2.225 -0.415,2.916 -0.374,0.281 -0.813,0.417 -1.248,0.417 z"
           id="path3031-6-7-5-4-1" />
        <path
           style="fill:#000000"
           inkscape:connector-curvature="0"
           d="m 2362.8924,900.73665 c -0.632,0 -1.257,-0.287 -1.666,-0.832 -5.566,-7.407 -14.065,-11.656 -23.319,-11.656 -9.249,0 -17.748,4.249 -23.314,11.656 -0.693,0.919 -1.996,1.102 -2.915,0.415 -0.919,-0.691 -1.104,-1.996 -0.415,-2.915 6.36,-8.465 16.073,-13.319 26.648,-13.319 10.57,0 20.284,4.854 26.644,13.319 0.689,0.919 0.504,2.224 -0.415,2.915 -0.373,0.281 -0.812,0.417 -1.248,0.417 z"
           id="path3033-2-9-7-4-0" />
      </g>
    </g>
    <rect
       style="color:#000000;fill:#999999;fill-opacity:1;fill-rule:nonzero;stroke:#666666;stroke-width:1;stroke-linecap:butt;stroke-linejoin:miter;stroke-miterlimit:4;stroke-opacity:1;stroke-dasharray:none;stroke-dashoffset:0;marker:none;visibility:visible;display:inline;overflow:visible;enable-background:accumulate"
       id="rect4594"
       width="3.2198613"
       height="2.9041886"
       x="361.69775"
       y="367.05847"
       inkscape:export-filename="./gateway.png"
       inkscape:export-xdpi="146.28999"
       inkscape:export-ydpi="146.28999" />
    <rect
       style="color:#000000;fill:#999999;fill-opacity:1;fill-rule:nonzero;stroke:#666666;stroke-width:1;stroke-linecap:butt;stroke-linejoin:miter;stroke-miterlimit:4;stroke-opacity:1;stroke-dasharray:none;stroke-dashoffset:0;marker:none;visibility:visible;display:inline;overflow:visible;enable-background:accumulate"
       id="rect4594-0"
       width="3.2198613"
       height="2.9041886"
       x="368.05893"
       y="367.05847"
       inkscape:export-filename="./gateway.png"
       inkscape:export-xdpi="146.28999"
       inkscape:export-ydpi="146.28999" />
    <rect
       style="color:#000000;fill:#999999;fill-opacity:1;fill-rule:nonzero;stroke:#666666;stroke-width:1;stroke-linecap:butt;stroke-linejoin:miter;stroke-miterlimit:4;stroke-opacity:1;stroke-dasharray:none;stroke-dashoffset:0;marker:none;visibility:visible;display:inline;overflow:visible;enable-background:accumulate"
       id="rect4594-08"
       width="3.2198613"
       height="2.9041886"
       x="374.4201"
       y="367.05847"
       inkscape:export-filename="./gateway.png"
       inkscape:export-xdpi="146.28999"
       inkscape:export-ydpi="146.28999" />
    <rect
       style="color:#000000;fill:#999999;fill-opacity:1;fill-rule:nonzero;stroke:#666666;stroke-width:1;stroke-linecap:butt;stroke-linejoin:miter;stroke-miterlimit:4;stroke-opacity:1;stroke-dasharray:none;stroke-dashoffset:0;marker:none;visibility:visible;display:inline;overflow:visible;enable-background:accumulate"
       id="rect2993"
       width="23.392857"
       height="14.285714"
       x="280.35715"
       y="355.75504"
       ry="4.2144642"
       inkscape:export-filename="./device.png"
       inkscape:export-xdpi="146.28999"
       inkscape:export-ydpi="146.28999" />
    <g
       id="g5950-1-4-7-3-0"
       transform="matrix(0.9328474,0,0,0.98728677,-1835.3085,-484.74432)"
       inkscape:export-filename="./device.png"
       inkscape:export-xdpi="146.28999"
       inkscape:export-ydpi="146.28999">
      <path
         id="path3035-4-1-7-5-8-4-3"
         d="m 2280.4817,861.9228 c -0.3079,0 -0.5578,-0.25978 -0.5578,-0.58034 v -4.06368 c 0,-0.32058 0.2499,-0.58049 0.5578,-0.58049 0.308,0 0.5577,0.25991 0.5577,0.58049 v 4.06368 c 0,0.32056 -0.2497,0.58034 -0.5577,0.58034 z"
         inkscape:connector-curvature="0"
         style="fill:#000000" />
      <g
         transform="matrix(0.31411962,0,0,0.37008543,1546.2164,517.87572)"
         id="g5916-4-8-1-0-1">
        <path
           style="fill:#000000"
           inkscape:connector-curvature="0"
           d="m 2329.5824,913.22865 c -0.435,0 -0.872,-0.136 -1.246,-0.417 -0.921,-0.689 -1.108,-1.995 -0.417,-2.913 2.38,-3.176 6.023,-4.997 9.992,-4.997 3.962,0 7.601,1.816 9.985,4.984 0.691,0.918 0.508,2.224 -0.411,2.915 -0.92,0.695 -2.224,0.508 -2.915,-0.41 -1.592,-2.115 -4.019,-3.326 -6.66,-3.326 -2.647,0 -5.074,1.213 -6.662,3.33 -0.407,0.547 -1.031,0.834 -1.666,0.834 z"
           id="path3029-8-6-4-2-9-0" />
        <path
           style="fill:#000000"
           inkscape:connector-curvature="0"
           d="m 2354.5664,906.98265 c -0.632,0 -1.258,-0.287 -1.667,-0.832 -3.578,-4.763 -9.042,-7.495 -14.992,-7.495 -5.948,0 -11.41,2.732 -14.988,7.495 -0.689,0.921 -1.998,1.102 -2.915,0.415 -0.918,-0.691 -1.104,-1.997 -0.415,-2.916 4.373,-5.82 11.051,-9.158 18.322,-9.158 7.269,0 13.945,3.338 18.318,9.158 0.689,0.919 0.504,2.225 -0.415,2.916 -0.374,0.281 -0.813,0.417 -1.248,0.417 z"
           id="path3031-6-7-5-4-1-9" />
        <path
           style="fill:#000000"
           inkscape:connector-curvature="0"
           d="m 2362.8924,900.73665 c -0.632,0 -1.257,-0.287 -1.666,-0.832 -5.566,-7.407 -14.065,-11.656 -23.319,-11.656 -9.249,0 -17.748,4.249 -23.314,11.656 -0.693,0.919 -1.996,1.102 -2.915,0.415 -0.919,-0.691 -1.104,-1.996 -0.415,-2.915 6.36,-8.465 16.073,-13.319 26.648,-13.319 10.57,0 20.284,4.854 26.644,13.319 0.689,0.919 0.504,2.224 -0.415,2.915 -0.373,0.281 -0.812,0.417 -1.248,0.417 z"
           id="path3033-2-9-7-4-0-0" />
      </g>
    </g>
  </g>
</svg>
